# xmcd CD database file
#
# Track frame offsets:
#	150
#	18573
#	58730
#	90923
#	136198
#	158730
#
# Disc length: 2367 seconds
#
# Revision: 0
# Processed by: cddbd v1.5.1PL0 Copyright (c) Steve Scherf et al.
# Submitted via: CDex 1.50
#
DISCID=40093d06
DTITLE=益田幹夫 - Trace
DYEAR=1974
DGENRE=Jazz
TTITLE0=Pinocchio
TTITLE1=Black Daffodils
TTITLE2=Hard Luck
TTITLE3=Prayer
TTITLE4=Add Some
TTITLE5=Alone Alone And Alone
EXTD=YEAR: 1974
EXTT0=
EXTT1=
EXTT2=
EXTT3=
EXTT4=
EXTT5=
PLAYORDER=
